<svg width="8" height="8" viewBox="0 0 8 8" fill="none" xmlns="http://www.w3.org/2000/svg">
<path d="M0.467039 6.88471L3.35133 4.00042L0.467039 1.11613C0.38355 1.02969 0.337352 0.913913 0.338396 0.79374C0.339441 0.673566 0.387643 0.558611 0.472622 0.473632C0.5576 0.388653 0.672556 0.340451 0.79273 0.339406C0.912903 0.338362 1.02868 0.38456 1.11512 0.468049L3.99941 3.35234L6.8837 0.468049C6.92598 0.424273 6.97656 0.389356 7.03248 0.365336C7.0884 0.341315 7.14854 0.328671 7.2094 0.328142C7.27025 0.327613 7.33061 0.33921 7.38693 0.362255C7.44326 0.385301 7.49443 0.419333 7.53747 0.462368C7.5805 0.505402 7.61454 0.556576 7.63758 0.612903C7.66063 0.669231 7.67222 0.729584 7.67169 0.790441C7.67117 0.851298 7.65852 0.91144 7.6345 0.967359C7.61048 1.02328 7.57556 1.07385 7.53179 1.11613L4.6475 4.00042L7.53179 6.88471C7.57556 6.92699 7.61048 6.97757 7.6345 7.03349C7.65852 7.08941 7.67117 7.14955 7.67169 7.21041C7.67222 7.27126 7.66063 7.33162 7.63758 7.38794C7.61454 7.44427 7.5805 7.49544 7.53747 7.53848C7.49443 7.58151 7.44326 7.61555 7.38693 7.63859C7.33061 7.66164 7.27025 7.67323 7.2094 7.67271C7.14854 7.67218 7.0884 7.65953 7.03248 7.63551C6.97656 7.61149 6.92598 7.57657 6.8837 7.5328L3.99941 4.64851L1.11512 7.5328C1.02868 7.61629 0.912903 7.66248 0.79273 7.66144C0.672556 7.6604 0.5576 7.61219 0.472622 7.52721C0.387643 7.44224 0.339441 7.32728 0.338396 7.20711C0.337352 7.08693 0.38355 6.97116 0.467039 6.88471Z" fill="white"/>
</svg>
